<svg width="1420" height="900" viewBox="0 0 1420 900" fill="none" xmlns="http://www.w3.org/2000/svg">
<mask id="mask0" mask-type="alpha" maskUnits="userSpaceOnUse" x="0" y="0" width="1420" height="900">
<rect width="1420" height="900" fill="white"/>
</mask>
<g mask="url(#mask0)">
<path d="M1564.5 483.947C1506.57 796.465 392.496 1091.95 167.496 987.448C-452.504 1110.95 1049.07 625.965 1106.99 313.448C1164.92 0.929935 649.495 -55.0526 700.995 -55.0526C824.996 -55.0526 1622.42 171.43 1564.5 483.947Z" fill="#08BDAA"/>
<path d="M1564.5 483.947C1506.57 796.465 392.496 1091.95 167.496 987.448C-452.504 1110.95 1049.07 625.965 1106.99 313.448C1164.92 0.929935 649.495 -55.0526 700.995 -55.0526C824.996 -55.0526 1622.42 171.43 1564.5 483.947Z" fill="url(#paint0_linear)"/>
</g>
<defs>
<linearGradient id="paint0_linear" x1="1231.61" y1="-332.705" x2="1021.86" y2="799.021" gradientUnits="userSpaceOnUse">
<stop stop-color="white"/>
<stop offset="1" stop-color="white" stop-opacity="0"/>
</linearGradient>
</defs>
</svg>
