<svg width="1264" height="900" viewBox="0 0 1264 900" fill="none" xmlns="http://www.w3.org/2000/svg">
<path fill-rule="evenodd" clip-rule="evenodd" d="M1263.5 248.535V648.519C1145.11 746.801 951.06 835.332 750.006 900H0C45.3748 872.533 100.907 840.719 161.765 805.853C443.649 644.36 839.797 417.405 870.11 253.848C891.82 136.713 832.985 55.6173 753.645 0H839.178C992.287 64.036 1156.59 150.608 1263.5 248.535Z" fill="#08BDAA"/>
<path fill-rule="evenodd" clip-rule="evenodd" d="M1263.5 248.535V648.519C1145.11 746.801 951.06 835.332 750.006 900H0C45.3748 872.533 100.907 840.719 161.765 805.853C443.649 644.36 839.797 417.405 870.11 253.848C891.82 136.713 832.985 55.6173 753.645 0H839.178C992.287 64.036 1156.59 150.608 1263.5 248.535Z" fill="url(#paint0_linear)"/>
<defs>
<linearGradient id="paint0_linear" x1="928.726" y1="-382.277" x2="718.973" y2="749.449" gradientUnits="userSpaceOnUse">
<stop stop-color="white"/>
<stop offset="1" stop-color="white" stop-opacity="0"/>
</linearGradient>
</defs>
</svg>
