<svg width="414" height="896" viewBox="0 0 414 896" fill="none" xmlns="http://www.w3.org/2000/svg">
<g clip-path="url(#clip0)">
<rect width="414" height="896" fill="white"/>
<path d="M615 563.5C533.856 1001.31 18.4736 1071.25 -201.499 942.501C-680.845 929.049 267.357 930.314 348.501 492.5C429.645 54.6867 146.291 -53.4999 198.5 -53.4999C298.5 -53.4999 696.144 125.686 615 563.5Z" fill="#08BDAA"/>
<path d="M615 563.5C533.856 1001.31 18.4736 1071.25 -201.499 942.501C-680.845 929.049 267.357 930.314 348.501 492.5C429.645 54.6867 146.291 -53.4999 198.5 -53.4999C298.5 -53.4999 696.144 125.686 615 563.5Z" fill="url(#paint0_linear)"/>
</g>
<defs>
<linearGradient id="paint0_linear" x1="392.82" y1="-498.212" x2="98.9717" y2="1087.25" gradientUnits="userSpaceOnUse">
<stop stop-color="white"/>
<stop offset="1" stop-color="white" stop-opacity="0"/>
</linearGradient>
<clipPath id="clip0">
<rect width="414" height="896" fill="white"/>
</clipPath>
</defs>
</svg>
