<svg width="375" height="654" viewBox="0 0 375 654" fill="none" xmlns="http://www.w3.org/2000/svg">
<path fill-rule="evenodd" clip-rule="evenodd" d="M375 47.748V654H0V646.464C8.57522 639.936 17.4004 633.264 26.4121 626.45C152.19 531.356 314.315 408.781 340.5 267.5C361.153 156.065 315.902 67.6467 251.455 0L323.584 0C341.255 15.1737 358.494 31.1178 375 47.748Z" fill="#08BDAA"/>
<path fill-rule="evenodd" clip-rule="evenodd" d="M375 47.748V654H0V646.464C8.57522 639.936 17.4004 633.264 26.4121 626.45C152.19 531.356 314.315 408.781 340.5 267.5C361.153 156.065 315.902 67.6467 251.455 0L323.584 0C341.255 15.1737 358.494 31.1178 375 47.748Z" fill="url(#paint0_linear)"/>
<defs>
<linearGradient id="paint0_linear" x1="348.117" y1="-383.384" x2="138.364" y2="748.342" gradientUnits="userSpaceOnUse">
<stop stop-color="white"/>
<stop offset="1" stop-color="white" stop-opacity="0"/>
</linearGradient>
</defs>
</svg>
