<svg width="375" height="654" viewBox="0 0 375 654" fill="none" xmlns="http://www.w3.org/2000/svg">
<path fill-rule="evenodd" clip-rule="evenodd" d="M375 84.7809V654H0V646.464C8.57527 639.936 17.4005 633.264 26.4123 626.45C152.191 531.356 314.315 408.781 340.5 267.5C362.515 148.721 300.84 61.9434 218.74 0L262.192 0C301.63 25.347 340.088 53.7484 375 84.7809Z" fill="#08BDAA"/>
<path fill-rule="evenodd" clip-rule="evenodd" d="M375 84.7809V654H0V646.464C8.57527 639.936 17.4005 633.264 26.4123 626.45C152.191 531.356 314.315 408.781 340.5 267.5C362.515 148.721 300.84 61.9434 218.74 0L262.192 0C301.63 25.347 340.088 53.7484 375 84.7809Z" fill="url(#paint0_linear)"/>
<defs>
<linearGradient id="paint0_linear" x1="348.117" y1="-383.384" x2="138.364" y2="748.342" gradientUnits="userSpaceOnUse">
<stop stop-color="white"/>
<stop offset="1" stop-color="white" stop-opacity="0"/>
</linearGradient>
</defs>
</svg>
