<svg width="375" height="654" viewBox="0 0 375 654" fill="none" xmlns="http://www.w3.org/2000/svg">
<path fill-rule="evenodd" clip-rule="evenodd" d="M301.477 0C326.29 11.4193 350.937 23.5924 375 36.4886V654H0V634.209C14.8301 622.193 33.8313 608.743 55.1411 593.66C147.847 528.04 284.241 431.497 310.931 287.489C335.288 156.071 258.536 63.3405 165.234 0H301.477Z" fill="#08BDAA"/>
<path fill-rule="evenodd" clip-rule="evenodd" d="M301.477 0C326.29 11.4193 350.937 23.5924 375 36.4886V654H0V634.209C14.8301 622.193 33.8313 608.743 55.1411 593.66C147.847 528.04 284.241 431.497 310.931 287.489C335.288 156.071 258.536 63.3405 165.234 0H301.477Z" fill="url(#paint0_linear)"/>
<defs>
<linearGradient id="paint0_linear" x1="371.117" y1="-386.384" x2="161.364" y2="745.342" gradientUnits="userSpaceOnUse">
<stop stop-color="white"/>
<stop offset="1" stop-color="white" stop-opacity="0"/>
</linearGradient>
</defs>
</svg>
