<svg width="20" height="13" viewBox="0 0 20 13" fill="none" xmlns="http://www.w3.org/2000/svg">
<path d="M4.07241 2.04417C4.69697 0.791601 5.97623 0 7.37587 0H11.9022C13.0549 0 14.126 0.59454 14.7357 1.57274V1.57274C14.9306 1.88553 15.0815 2.22373 15.184 2.57776L15.7266 4.45181C15.767 4.59148 15.8907 4.69082 16.0358 4.70021L16.6565 4.74037C18.832 4.88112 20.2389 7.10127 19.4374 9.12864V9.12864C19.2377 9.63361 18.7499 9.96534 18.2069 9.96534H17.1925V9.96534C16.9214 7.12609 12.7866 7.13126 12.466 9.96534V9.96534H6.60658V9.96534C6.41638 7.12088 2.26608 7.14302 1.86401 9.96534V9.96534H1.45462C0.638084 9.96534 -0.0184968 9.29339 0.000397816 8.47707L0.0230943 7.49649C0.0562523 6.06394 1.10578 4.8585 2.52014 4.62851V4.62851C2.95295 4.55813 3.312 4.25546 3.4546 3.8408L4.07241 2.04417V2.04417Z" fill="white"/>
<path d="M5.43481 4.49658C5.43481 2.77069 6.83392 1.37158 8.55981 1.37158H10.5129C12.2388 1.37158 13.6379 2.77069 13.6379 4.49658H5.43481Z" fill="#08BDAA"/>
<circle cx="4.26294" cy="10.356" r="1.5" fill="#08BDAA" stroke="white" stroke-width="0.90625"/>
<circle cx="14.8098" cy="10.356" r="1.5" fill="#08BDAA" stroke="white" stroke-width="0.90625"/>
</svg>
