<svg width="1440" height="900" viewBox="0 0 1440 900" fill="none" xmlns="http://www.w3.org/2000/svg">
<g clip-path="url(#clip0)">
<rect width="1440" height="900" fill="white"/>
<rect x="1238.97" y="417.12" width="24.7139" height="24.7139" transform="rotate(43 1238.97 417.12)" stroke="#08BDAA" stroke-opacity="0.15" stroke-width="3"/>
<rect x="1419.97" y="374.12" width="24.7139" height="24.7139" transform="rotate(43 1419.97 374.12)" stroke="#08BDAA" stroke-opacity="0.15" stroke-width="3"/>
<rect x="1399.97" y="690.12" width="24.7139" height="24.7139" transform="rotate(43 1399.97 690.12)" stroke="#08BDAA" stroke-opacity="0.15" stroke-width="3"/>
<rect x="505.975" y="6.12003" width="24.7139" height="24.7139" transform="rotate(43 505.975 6.12003)" stroke="#08BDAA" stroke-opacity="0.15" stroke-width="3"/>
<rect x="677.975" y="210.12" width="24.7139" height="24.7139" transform="rotate(43 677.975 210.12)" stroke="#08BDAA" stroke-opacity="0.15" stroke-width="3"/>
<rect x="1033.97" y="139.12" width="24.7139" height="24.7139" transform="rotate(43 1033.97 139.12)" stroke="#08BDAA" stroke-opacity="0.15" stroke-width="3"/>
<rect x="857.975" y="810.12" width="24.7139" height="24.7139" transform="rotate(43 857.975 810.12)" stroke="#08BDAA" stroke-opacity="0.15" stroke-width="3"/>
<rect x="585.975" y="691.12" width="24.7139" height="24.7139" transform="rotate(43 585.975 691.12)" stroke="#08BDAA" stroke-opacity="0.15" stroke-width="3"/>
<rect x="352.61" y="773.617" width="24.7139" height="24.7139" transform="rotate(111.5 352.61 773.617)" stroke="#08BDAA" stroke-opacity="0.15" stroke-width="3"/>
<rect x="53.9749" y="139.12" width="24.7139" height="24.7139" transform="rotate(43 53.9749 139.12)" stroke="#08BDAA" stroke-opacity="0.15" stroke-width="3"/>
<rect x="658.975" y="589.12" width="24.7139" height="24.7139" transform="rotate(43 658.975 589.12)" stroke="#08BDAA" stroke-opacity="0.15" stroke-width="3"/>
<rect x="156.975" y="670.12" width="24.7139" height="24.7139" transform="rotate(43 156.975 670.12)" stroke="#08BDAA" stroke-opacity="0.15" stroke-width="3"/>
<rect x="80.9749" y="397.12" width="24.7139" height="24.7139" transform="rotate(43 80.9749 397.12)" stroke="#08BDAA" stroke-opacity="0.15" stroke-width="3"/>
<rect x="974.975" y="331.12" width="24.7139" height="24.7139" transform="rotate(43 974.975 331.12)" stroke="#08BDAA" stroke-opacity="0.15" stroke-width="3"/>
<rect x="403.975" y="879.12" width="24.7139" height="24.7139" transform="rotate(43 403.975 879.12)" stroke="#08BDAA" stroke-opacity="0.15" stroke-width="3"/>
<rect x="1308.97" y="563.12" width="24.7139" height="24.7139" transform="rotate(43 1308.97 563.12)" stroke="#08BDAA" stroke-opacity="0.15" stroke-width="3"/>
<rect x="182.975" y="253.12" width="24.7139" height="24.7139" transform="rotate(43 182.975 253.12)" stroke="#08BDAA" stroke-opacity="0.15" stroke-width="3"/>
<rect x="95.9749" y="-13.88" width="24.7139" height="24.7139" transform="rotate(43 95.9749 -13.88)" stroke="#08BDAA" stroke-opacity="0.15" stroke-width="3"/>
<rect x="645.975" y="810.12" width="24.7139" height="24.7139" transform="rotate(43 645.975 810.12)" stroke="#08BDAA" stroke-opacity="0.15" stroke-width="3"/>
<rect x="1289.97" y="860.12" width="24.7139" height="24.7139" transform="rotate(43 1289.97 860.12)" stroke="#08BDAA" stroke-opacity="0.15" stroke-width="3"/>
<rect x="374.975" y="139.12" width="24.7139" height="24.7139" transform="rotate(43 374.975 139.12)" stroke="#08BDAA" stroke-opacity="0.15" stroke-width="3"/>
<rect x="-5.02509" y="543.12" width="24.7139" height="24.7139" transform="rotate(43 -5.02509 543.12)" stroke="#08BDAA" stroke-opacity="0.15" stroke-width="3"/>
<circle cx="470.855" cy="322.855" r="12.355" stroke="#08BDAA" stroke-opacity="0.15" stroke-width="3"/>
<circle cx="245.855" cy="112.855" r="12.355" stroke="#08BDAA" stroke-opacity="0.15" stroke-width="3"/>
<circle cx="711.855" cy="84.855" r="12.355" stroke="#08BDAA" stroke-opacity="0.15" stroke-width="3"/>
<circle cx="862.855" cy="213.855" r="12.355" stroke="#08BDAA" stroke-opacity="0.15" stroke-width="3"/>
<circle cx="980.855" cy="8.855" r="12.355" stroke="#08BDAA" stroke-opacity="0.15" stroke-width="3"/>
<circle cx="259.855" cy="546.855" r="12.355" stroke="#08BDAA" stroke-opacity="0.15" stroke-width="3"/>
<circle cx="62.855" cy="871.855" r="12.355" stroke="#08BDAA" stroke-opacity="0.15" stroke-width="3"/>
<circle cx="733.855" cy="405.855" r="12.355" stroke="#08BDAA" stroke-opacity="0.15" stroke-width="3"/>
<circle cx="552.855" cy="447.855" r="12.355" stroke="#08BDAA" stroke-opacity="0.15" stroke-width="3"/>
<circle cx="1205.85" cy="207.855" r="12.355" stroke="#08BDAA" stroke-opacity="0.15" stroke-width="3"/>
<circle cx="1258.85" cy="17.855" r="12.355" stroke="#08BDAA" stroke-opacity="0.15" stroke-width="3"/>
<circle cx="1414.85" cy="98.855" r="12.355" stroke="#08BDAA" stroke-opacity="0.15" stroke-width="3"/>
<circle cx="848.855" cy="653.855" r="12.355" stroke="#08BDAA" stroke-opacity="0.15" stroke-width="3"/>
<circle cx="1141.85" cy="793.855" r="12.355" stroke="#08BDAA" stroke-opacity="0.15" stroke-width="3"/>
<circle cx="1067.85" cy="475.855" r="12.355" stroke="#08BDAA" stroke-opacity="0.15" stroke-width="3"/>
<path d="M555.722 157.282L566.855 138L577.988 157.282H555.722Z" stroke="#08BDAA" stroke-opacity="0.15"/>
<path d="M557.454 156.282L566.855 140L576.256 156.282H557.454Z" stroke="#08BDAA" stroke-opacity="0.15" stroke-width="3"/>
<path d="M866.001 126.95L882.201 117.407L882.365 136.208L866.001 126.95Z" stroke="#08BDAA" stroke-opacity="0.15" stroke-width="3"/>
<path d="M867.294 490.719L865.656 471.99L882.695 479.935L867.294 490.719Z" stroke="#08BDAA" stroke-opacity="0.15" stroke-width="3"/>
<path d="M283.419 375.798L294.337 360.491L302.134 377.6L283.419 375.798Z" stroke="#08BDAA" stroke-opacity="0.15" stroke-width="3"/>
<path d="M1365.89 232.123L1377.2 217.107L1384.55 234.414L1365.89 232.123Z" stroke="#08BDAA" stroke-opacity="0.15" stroke-width="3"/>
<path d="M1255.44 104.175L1251.69 85.7514L1269.52 91.7172L1255.44 104.175Z" stroke="#08BDAA" stroke-opacity="0.15" stroke-width="3"/>
<path d="M253.247 40.4668L255.701 21.8262L270.617 33.2718L253.247 40.4668Z" stroke="#08BDAA" stroke-opacity="0.15" stroke-width="3"/>
<path d="M416.494 669.714L418.948 651.074L433.865 662.519L416.494 669.714Z" stroke="#08BDAA" stroke-opacity="0.15" stroke-width="3"/>
<path d="M1031.29 744.157L1048.33 736.211L1046.69 754.941L1031.29 744.157Z" stroke="#08BDAA" stroke-opacity="0.15" stroke-width="3"/>
<path d="M1179.63 611.299L1161.7 605.646L1175.56 592.944L1179.63 611.299Z" stroke="#08BDAA" stroke-opacity="0.15" stroke-width="3"/>
<circle cx="51.855" cy="281.855" r="12.355" stroke="#08BDAA" stroke-opacity="0.15" stroke-width="3"/>
</g>
<defs>
<clipPath id="clip0">
<rect width="1440" height="900" fill="white"/>
</clipPath>
</defs>
</svg>
