<svg width="22" height="25" viewBox="0 0 22 25" fill="none" xmlns="http://www.w3.org/2000/svg">
<path d="M4.10646 14.7351C4.73102 13.4825 6.01028 12.6909 7.40992 12.6909H11.9363C13.0889 12.6909 14.16 13.2854 14.7697 14.2637V14.2637C14.9647 14.5764 15.1156 14.9146 15.2181 15.2687L15.7606 17.1427C15.8011 17.2824 15.9247 17.3817 16.0698 17.3911L16.6905 17.4313C18.866 17.572 20.273 19.7922 19.4714 21.8196V21.8196C19.2718 22.3245 18.7839 22.6562 18.2409 22.6562H17.2266V22.6562C16.9342 19.8168 12.7999 19.8176 12.5 22.6562V22.6562L6.64062 22.6562V22.6562C6.32255 19.8126 2.17566 19.8083 1.89806 22.6562V22.6562H1.48867C0.672134 22.6562 0.0155531 21.9843 0.0344478 21.168L0.0571443 20.1874C0.0903024 18.7548 1.13983 17.5494 2.55419 17.3194V17.3194C2.987 17.249 3.34605 16.9464 3.48865 16.5317L4.10646 14.7351V14.7351Z" fill="white"/>
<path d="M5.46875 17.1875C5.46875 15.4616 6.86786 14.0625 8.59375 14.0625H10.5469C12.2728 14.0625 13.6719 15.4616 13.6719 17.1875V17.1875H5.46875V17.1875Z" fill="#08BDAA"/>
<circle cx="4.29688" cy="23.0469" r="1.5" fill="#08BDAA" stroke="white" stroke-width="0.90625"/>
<circle cx="14.8438" cy="23.0469" r="1.5" fill="#08BDAA" stroke="white" stroke-width="0.90625"/>
</svg>
