<svg width="54" height="64" viewBox="0 0 54 64" fill="none" xmlns="http://www.w3.org/2000/svg">
<path d="M10.5125 37.7218C12.1114 34.5152 15.3863 32.4887 18.9694 32.4887H30.5568C33.5076 32.4887 36.2497 34.0107 37.8105 36.5149V36.5149C38.3096 37.3157 38.6958 38.1815 38.9582 39.0878L40.3472 43.8854C40.4507 44.2429 40.7673 44.4972 41.1387 44.5213L42.7277 44.6241C48.297 44.9844 51.8988 50.668 49.8468 55.858V55.858C49.3358 57.1508 48.0868 58 46.6967 58H44.1V58C43.3515 50.731 32.7678 50.733 32 58V58L17 58V58C16.1857 50.7201 5.56969 50.7093 4.85903 58V58H3.811C1.72066 58 0.0398159 56.2798 0.0881862 54.19L0.146289 51.6797C0.231174 48.0124 2.91797 44.9265 6.53874 44.3377V44.3377C7.64673 44.1575 8.5659 43.3827 8.93094 42.3212L10.5125 37.7218V37.7218Z" fill="white"/>
<path d="M14 44C14 39.5817 17.5817 36 22 36H27C31.4183 36 35 39.5817 35 44V44H14V44Z" fill="#08BDAA"/>
<circle cx="11" cy="59" r="3.5" fill="#08BDAA" stroke="white" stroke-width="3"/>
<circle cx="38" cy="59" r="3.5" fill="#08BDAA" stroke="white" stroke-width="3"/>
</svg>
