<svg width="39" height="51" viewBox="0 0 39 51" fill="none" xmlns="http://www.w3.org/2000/svg">
<path d="M25 13H11V37H25V13Z" fill="#0097EC"/>
<path fill-rule="evenodd" clip-rule="evenodd" d="M3.55974 26.7035L14.607 15.3978L11.7461 12.6023L0.698813 23.908L3.55974 26.7035Z" fill="#0097EC"/>
<path fill-rule="evenodd" clip-rule="evenodd" d="M29.9708 13.9978C32.6 11.923 35.2189 8.36734 35.4977 2.59641L31.5024 2.40341C31.2857 6.88763 29.3223 9.41411 27.4929 10.8577C26.5538 11.5988 25.6242 12.0718 24.9334 12.3574C24.5898 12.4995 24.311 12.5928 24.1278 12.6484C24.0365 12.6761 23.9695 12.6943 23.9309 12.7043C23.9116 12.7093 23.8995 12.7122 23.895 12.7133C23.8927 12.7138 23.8924 12.7139 23.8941 12.7135L23.898 12.7126L23.9011 12.7119L23.903 12.7115C23.904 12.7113 23.905 12.7111 24.3352 14.6643C24.7653 16.6174 24.7664 16.6172 24.7675 16.617L24.77 16.6164L24.7754 16.6152L24.7888 16.6121L24.8251 16.6036C24.8534 16.5969 24.89 16.5878 24.9344 16.5763C25.023 16.5534 25.1428 16.5205 25.2894 16.476C25.5823 16.3871 25.9847 16.2511 26.4616 16.054C27.4119 15.6611 28.6806 15.0159 29.9708 13.9978Z" fill="#0097EC"/>
<path fill-rule="evenodd" clip-rule="evenodd" d="M21 34V50.0933H25L25 34H21Z" fill="#0097EC"/>
<path fill-rule="evenodd" clip-rule="evenodd" d="M11 34L11 50.0933H15L15 34H11Z" fill="#0097EC"/>
<path d="M11.9999 6.09622C11.9999 9.46307 14.7293 12.1924 18.0962 12.1924C21.463 12.1924 24.1924 9.46307 24.1924 6.09622C24.1924 2.72937 21.463 0 18.0962 0C14.7293 0 11.9999 2.72937 11.9999 6.09622Z" fill="#0097EC"/>
</svg>
