<svg width="33" height="42" viewBox="0 0 33 42" fill="none" xmlns="http://www.w3.org/2000/svg">
<circle r="5.05558" transform="matrix(-1 0 0 1 15.4444 5.05558)" fill="#08BDAA"/>
<rect width="10.5" height="18.6667" transform="matrix(-1 0 0 1 20.5 11.6666)" fill="#08BDAA"/>
<line y1="-1.5" x2="13.1994" y2="-1.5" transform="matrix(-0.707107 0.707107 0.707107 0.707107 12.3333 14)" stroke="#08BDAA" stroke-width="3"/>
<path d="M29.1216 4.73107C29.2295 13.1513 20.4616 13.2621 20.4616 13.2621" stroke="#08BDAA" stroke-width="3"/>
<line y1="-1.5" x2="13.1994" y2="-1.5" transform="matrix(0 -1 -1 0 17 41.1996)" stroke="#08BDAA" stroke-width="3"/>
<line y1="-1.5" x2="13.1994" y2="-1.5" transform="matrix(0 -1 -1 0 10 41.1996)" stroke="#08BDAA" stroke-width="3"/>
<rect width="2.33334" height="1.16667" transform="matrix(-1 0 0 1 11.1667 10.5)" fill="white"/>
</svg>
