<svg width="41" height="53" viewBox="0 0 41 53" fill="none" xmlns="http://www.w3.org/2000/svg">
<path d="M26 15H12V39H26V15Z" fill="#0097EC"/>
<path fill-rule="evenodd" clip-rule="evenodd" d="M5.02845 29.1723L16.0319 17.8228L12.2119 14.0682L1.20844 25.4177L5.02845 29.1723Z" fill="#0097EC"/>
<path fill-rule="evenodd" clip-rule="evenodd" d="M30.9708 15.9978C33.6 13.923 36.2189 10.3673 36.4977 4.59641L32.5024 4.40341C32.2857 8.88763 30.3223 11.4141 28.4929 12.8577C27.5538 13.5988 26.6242 14.0718 25.9334 14.3574C25.5898 14.4995 25.311 14.5928 25.1278 14.6484C25.0365 14.6761 24.9695 14.6943 24.9309 14.7043C24.9116 14.7093 24.8995 14.7122 24.895 14.7133C24.8927 14.7138 24.8924 14.7139 24.8941 14.7135L24.898 14.7126L24.9011 14.7119L24.903 14.7115C24.904 14.7113 24.905 14.7111 25.3352 16.6643C25.7653 18.6174 25.7664 18.6172 25.7675 18.617L25.77 18.6164L25.7754 18.6152L25.7888 18.6121L25.8251 18.6036C25.8534 18.5969 25.89 18.5878 25.9344 18.5763C26.023 18.5534 26.1428 18.5205 26.2894 18.476C26.5823 18.3871 26.9847 18.2511 27.4616 18.054C28.4119 17.6611 29.6806 17.0159 30.9708 15.9978Z" fill="#0097EC"/>
<path fill-rule="evenodd" clip-rule="evenodd" d="M30.5212 16.4849C33.213 14.3608 35.8943 10.7205 36.1797 4.81219L32.0892 4.6146C31.8675 9.20553 29.8573 11.7921 27.9843 13.2701C27.0229 14.0288 26.0711 14.5131 25.3639 14.8055C25.0121 14.9509 24.7268 15.0465 24.5392 15.1034C24.4457 15.1318 24.3771 15.1504 24.3376 15.1606C24.3179 15.1657 24.3054 15.1687 24.3008 15.1698C24.2985 15.1704 24.2982 15.1704 24.2999 15.1701L24.3039 15.1691L24.3071 15.1684L24.309 15.168C24.31 15.1678 24.3111 15.1675 24.7515 17.1672C25.1918 19.1669 25.193 19.1667 25.1941 19.1664L25.1966 19.1658L25.2022 19.1646L25.2159 19.1615L25.2531 19.1528C25.2821 19.1458 25.3196 19.1366 25.365 19.1248C25.4557 19.1013 25.5783 19.0676 25.7285 19.0221C26.0283 18.9311 26.4403 18.7919 26.9286 18.59C27.9014 18.1878 29.2003 17.5273 30.5212 16.4849Z" stroke="white"/>
<path fill-rule="evenodd" clip-rule="evenodd" d="M22 36V52.0933H26L26 36H22Z" fill="#0097EC"/>
<path fill-rule="evenodd" clip-rule="evenodd" d="M12 36L12 52.0933H16L16 36H12Z" fill="#0097EC"/>
<path d="M12.9999 7.09622C12.9999 10.4631 15.7293 13.1924 19.0962 13.1924C22.463 13.1924 25.1924 10.4631 25.1924 7.09622C25.1924 3.72937 22.463 1 19.0962 1C15.7293 1 12.9999 3.72937 12.9999 7.09622Z" fill="#0097EC"/>
<path d="M12.5 7C12.5 10.5899 15.4101 13.5 19 13.5C22.5899 13.5 25.5 10.5899 25.5 7C25.5 3.41015 22.5899 0.5 19 0.5C15.4101 0.5 12.5 3.41015 12.5 7Z" stroke="white"/>
<line x1="16" y1="39.5" x2="22" y2="39.5" stroke="white"/>
<line x1="11" y1="52.5" x2="16" y2="52.5" stroke="white"/>
<line x1="21.5" y1="40" x2="21.5" y2="53" stroke="white"/>
<line x1="22" y1="52.5" x2="26" y2="52.5" stroke="white"/>
<line x1="26.5" y1="19" x2="26.5" y2="53" stroke="white"/>
<line x1="16.5" y1="40" x2="16.5" y2="53" stroke="white"/>
<line x1="11.5" y1="52" x2="11.5" y2="22" stroke="white"/>
<line x1="11.3536" y1="22.3536" x2="4.35355" y2="29.3536" stroke="white"/>
<line x1="1.35355" y1="25.6464" x2="4.35355" y2="28.6464" stroke="white"/>
<line x1="0.646447" y1="25.6464" x2="12.6464" y2="13.6464" stroke="white"/>
<line x1="12" y1="14.5" x2="25" y2="14.5" stroke="white"/>
<line x1="13" y1="13.5" x2="11" y2="13.5" stroke="white"/>
<rect x="23" y="15" width="3" height="5" fill="#0097EC"/>
<line x1="25" y1="14.5" x2="26" y2="14.5" stroke="white"/>
</svg>
