<svg width="45" height="57" viewBox="0 0 45 57" fill="none" xmlns="http://www.w3.org/2000/svg">
<path d="M27 19H13V43H27V19Z" fill="#0097EC"/>
<path fill-rule="evenodd" clip-rule="evenodd" d="M6.02845 33.1723L17.0319 21.8228L13.2119 18.0682L2.20844 29.4177L6.02845 33.1723Z" fill="#0097EC"/>
<path fill-rule="evenodd" clip-rule="evenodd" d="M32.4594 19.5619C35.3942 17.246 38.3176 13.277 38.6288 6.83531L34.169 6.61988C33.9272 11.6253 31.7355 14.4455 29.6935 16.0569C28.6452 16.8841 27.6076 17.4121 26.8365 17.7309C26.4529 17.8895 26.1418 17.9936 25.9373 18.0557C25.8353 18.0866 25.7606 18.1069 25.7175 18.118C25.696 18.1236 25.6824 18.1269 25.6774 18.1281C25.6749 18.1287 25.6745 18.1288 25.6764 18.1284L25.6808 18.1274L25.6843 18.1266L25.6863 18.1261C25.6874 18.1259 25.6886 18.1256 26.1687 20.3059C26.6489 22.4861 26.6501 22.4858 26.6514 22.4855L26.6541 22.4849L26.6602 22.4836L26.6751 22.4802L26.7156 22.4707C26.7473 22.4631 26.7881 22.453 26.8376 22.4402C26.9365 22.4146 27.0702 22.3779 27.2339 22.3282C27.5609 22.229 28.01 22.0772 28.5424 21.8571C29.6031 21.4186 31.0192 20.6984 32.4594 19.5619Z" fill="#0097EC"/>
<path fill-rule="evenodd" clip-rule="evenodd" d="M32.0768 20.0831C35.2187 17.6018 38.3543 13.3568 38.7094 6.48297L33.9482 6.26891C33.6722 11.6102 31.322 14.6268 29.1358 16.3533C28.0136 17.2395 26.9037 17.8066 26.0792 18.1494C25.6691 18.32 25.3365 18.4322 25.118 18.4991C25.0089 18.5325 24.929 18.5544 24.883 18.5664C24.86 18.5725 24.8455 18.576 24.8402 18.5773C24.8375 18.578 24.8371 18.5781 24.8391 18.5776L24.8438 18.5765L24.8475 18.5757L24.8497 18.5752C24.8497 18.5752 24.8521 18.5746 25.3571 20.8991C25.862 23.2235 25.8647 23.2229 25.8647 23.2229L25.8676 23.2222L25.8741 23.2207L25.8901 23.2171L25.9334 23.2068C25.9672 23.1986 26.0108 23.1877 26.0637 23.1739C26.1695 23.1462 26.3124 23.1065 26.4873 23.0529C26.8368 22.9459 27.3169 22.7824 27.8861 22.5457C29.0203 22.0741 30.535 21.3007 32.0768 20.0831Z" stroke="black" stroke-width="2"/>
<path fill-rule="evenodd" clip-rule="evenodd" d="M23 40V56.0933H27L27 40H23Z" fill="#0097EC"/>
<path fill-rule="evenodd" clip-rule="evenodd" d="M13 40L13 56.0933H17L17 40H13Z" fill="#0097EC"/>
<path d="M13.9999 8.09622C13.9999 11.4631 16.7293 14.1924 20.0962 14.1924C23.463 14.1924 26.1924 11.4631 26.1924 8.09622C26.1924 4.72937 23.463 2 20.0962 2C16.7293 2 13.9999 4.72937 13.9999 8.09622Z" fill="#0097EC"/>
<path d="M13 8C13 11.866 16.134 15 20 15C23.866 15 27 11.866 27 8C27 4.13401 23.866 1 20 1C16.134 1 13 4.13401 13 8Z" stroke="black" stroke-width="2"/>
<line x1="17" y1="43" x2="23" y2="43" stroke="black" stroke-width="2"/>
<line x1="11" y1="56" x2="18" y2="56" stroke="black" stroke-width="2"/>
<line x1="22" y1="42" x2="22" y2="57" stroke="black" stroke-width="2"/>
<line x1="23" y1="56" x2="27" y2="56" stroke="black" stroke-width="2"/>
<line x1="28" y1="23" x2="28" y2="57" stroke="black" stroke-width="2"/>
<line x1="18" y1="44" x2="18" y2="57" stroke="black" stroke-width="2"/>
<line x1="12" y1="56" x2="12" y2="26" stroke="black" stroke-width="2"/>
<line x1="11.7593" y1="26.6508" x2="5.75926" y2="33.6508" stroke="black" stroke-width="2"/>
<line x1="2.70711" y1="29.2929" x2="5.70711" y2="32.2929" stroke="black" stroke-width="2"/>
<line x1="1.29289" y1="29.2929" x2="13.2929" y2="17.2929" stroke="black" stroke-width="2"/>
<line x1="13" y1="18" x2="26" y2="18" stroke="black" stroke-width="2"/>
<rect x="20" y="19" width="7" height="8" fill="#0097EC"/>
<line x1="26" y1="18.5" x2="27" y2="18.5" stroke="black"/>
<line x1="14" y1="16.5" x2="11" y2="16.5" stroke="white"/>
<line x1="28" y1="17.5" x2="25" y2="17.5" stroke="black"/>
<line x1="28" y1="19.5" x2="25" y2="19.5" stroke="#0097EC"/>
</svg>
