<svg width="31" height="41" viewBox="0 0 31 41" fill="none" xmlns="http://www.w3.org/2000/svg">
<g filter="url(#filter0_d)">
<path d="M15.5 0.623047C9.15887 0.623047 4 5.78191 4 12.123C4 19.9925 14.2914 31.5453 14.7295 32.0333C15.1411 32.4916 15.8596 32.4908 16.2705 32.0333C16.7086 31.5453 27 19.9925 27 12.123C26.9999 5.78191 21.8411 0.623047 15.5 0.623047ZM15.5 17.9089C12.3096 17.9089 9.71412 15.3134 9.71412 12.123C9.71412 8.9326 12.3097 6.33711 15.5 6.33711C18.6903 6.33711 21.2858 8.93266 21.2858 12.123C21.2858 15.3134 18.6903 17.9089 15.5 17.9089Z" fill="#08BDAA"/>
</g>
<defs>
<filter id="filter0_d" x="0" y="0.623047" width="31" height="39.7537" filterUnits="userSpaceOnUse" color-interpolation-filters="sRGB">
<feFlood flood-opacity="0" result="BackgroundImageFix"/>
<feColorMatrix in="SourceAlpha" type="matrix" values="0 0 0 0 0 0 0 0 0 0 0 0 0 0 0 0 0 0 127 0"/>
<feOffset dy="4"/>
<feGaussianBlur stdDeviation="2"/>
<feColorMatrix type="matrix" values="0 0 0 0 0 0 0 0 0 0 0 0 0 0 0 0 0 0 0.25 0"/>
<feBlend mode="normal" in2="BackgroundImageFix" result="effect1_dropShadow"/>
<feBlend mode="normal" in="SourceGraphic" in2="effect1_dropShadow" result="shape"/>
</filter>
</defs>
</svg>
