<svg width="36" height="49" viewBox="0 0 36 49" fill="none" xmlns="http://www.w3.org/2000/svg">
<path d="M17.7459 0C7.96076 0 0 7.96076 0 17.7458C0 29.8893 15.8808 47.7168 16.557 48.4698C17.1921 49.1771 18.3009 49.1759 18.9348 48.4698C19.611 47.7168 35.4918 29.8893 35.4918 17.7458C35.4916 7.96076 27.5309 0 17.7459 0ZM17.7459 26.6742C12.8228 26.6742 8.81758 22.6689 8.81758 17.7458C8.81758 12.8227 12.8228 8.81749 17.7459 8.81749C22.6689 8.81749 26.6741 12.8228 26.6741 17.7459C26.6741 22.669 22.6689 26.6742 17.7459 26.6742Z" fill="#08BDAA"/>
</svg>
